<svg id="b100193c-f1ee-4d85-bc66-7d4327472592" data-name="Layer 1" xmlns="http://www.w3.org/2000/svg" xmlns:xlink="http://www.w3.org/1999/xlink" width="600" height="165.88" viewBox="0 0 600 165.88"><defs><clipPath id="a3ce53ca-38d1-47fd-ac9b-084f25fe43ff" transform="translate(-96 -211.56)"><rect x="96" y="211.56" width="600" height="165.88" fill="none"/></clipPath></defs><rect width="165.88" height="165.88" fill="#130c11"/><g clip-path="url(#a3ce53ca-38d1-47fd-ac9b-084f25fe43ff)"><path d="M650.64,340.82h12.64V303.27h7.56l11.78,37.55H696l-13.63-40.14c8-4.44,10.9-11.85,10.9-22,0-17-7.31-25.81-22.3-25.81H650.64Zm12.64-76.08h6.57c9.3,0,10.78,4.82,10.78,13.71s-1.36,13.71-10.16,13.71h-7.19Zm-55,76.08H646v-12.6H621V302.41h21.81V290.55H621V264.74h25V252.89H608.31Zm-42.34,0h37.68v-12.6h-25V252.89H566Zm-42.33,0h37.67v-12.6h-25V302.41h21.81V290.55H536.28V264.74h25V252.89H523.64ZM489,264.74h5.83c7.43,0,9.79,4,9.79,10.87V318c0,7.53-2.73,11-9.79,11H489Zm-12.64,76.08h17.6c14.87,0,23.3-7.78,23.3-24.08V275.61c0-14.2-7.93-22.72-22.19-22.72H476.31Zm-35.93-67.18c0-6.06,4-8.9,8.56-8.9s8.55,2.84,8.55,8.9v46.43c0,6.05-4,8.89-8.55,8.89s-8.56-2.84-8.56-8.89Zm-12.64,46.43c0,14.33,10.91,21.49,21.2,21.49s21.19-7.16,21.19-21.49V273.64c0-14.33-10.91-21.49-21.19-21.49s-21.2,7.16-21.2,21.49Zm-63.25,20.75h12.64V287.34h.25l12.39,37.79h6.32l12.52-37.79h.25v53.48H421.5V252.89H409.23l-16.11,46.56h-.25l-16.24-46.56H364.49Zm-42.34,0h37.68v-12.6h-25V302.41h21.81V290.55H334.8V264.74h25V252.89H322.15Zm-49.68,0h12.64V303.27h7.56l11.77,37.55h13.39L304.2,300.68c8.05-4.44,10.9-11.85,10.9-22,0-17-7.31-25.81-22.3-25.81H272.47Zm12.64-76.08h6.57c9.3,0,10.78,4.82,10.78,13.71s-1.36,13.71-10.16,13.71h-7.19Z" transform="translate(-96 -211.56)" fill="#130c11"/><path d="M187,278.63c0,8.82-1.37,13.79-10.25,13.79H169.5V264.83h6.63c9.37,0,10.87,4.84,10.87,13.8m12.75.24c0-17.15-7.37-26-22.5-26h-20.5V341.4H169.5V303.61h7.63L189,341.4h13.5L188.75,301c8.13-4.47,11-11.93,11-22.13" transform="translate(-96 -211.56)" fill="#fff"/><path d="M139.49,280c0,8.83-.12,14.92-10.5,14.92h-6.12V264.83h6.62c10,0,10,6.83,10,15.16m12-.12c0-10.57-1.37-16.16-5.75-20.76s-9.5-6.22-16.5-6.22H110.12V341.4h12.75V306.84h6.5c9.37,0,15-3.48,18.5-9.2,3-4.84,3.62-10.06,3.62-17.77" transform="translate(-96 -211.56)" fill="#fff"/><path d="M235,320.52c0,6.09-4,9-8.63,9s-8.63-2.86-8.63-9V273.78c0-6.09,4-8.95,8.63-8.95s8.63,2.86,8.63,8.95Zm12.74,0V273.78c0-14.42-11-21.63-21.37-21.63S205,259.36,205,273.78v46.74c0,14.42,11,21.63,21.37,21.63s21.37-7.21,21.37-21.63" transform="translate(-96 -211.56)" fill="#fff"/><path d="M688.82,359.71h1.49v-4.45h1.9l2,4.45H696l-2.27-4.63a2.94,2.94,0,0,0,1.9-2.88,3,3,0,0,0-1-2.22,2.79,2.79,0,0,0-2-.69h-3.83Zm1.49-9h2.33a1.59,1.59,0,0,1,1.09.32,1.44,1.44,0,0,1,.49,1.18,1.57,1.57,0,0,1-1.66,1.66h-2.25Zm-9.24,9h6.27v-1.49h-4.79v-3.06h4.08v-1.41h-4.08v-3h4.79v-1.49h-6.27Zm-7.76,0h6.27v-1.49H674.8v-8.93h-1.49Zm-7.75,0h6.27v-1.49h-4.78v-3.06h4.07v-1.41h-4.07v-3h4.78v-1.49h-6.27Zm-7.19-8.93h1.78a1.86,1.86,0,0,1,1.75.88c.4.57.44,1,.44,2.9s0,2.22-.37,2.75a2,2,0,0,1-1.82.91h-1.78Zm-1.49,8.93h3.34a3.45,3.45,0,0,0,3.06-1.73c.44-.73.55-1.14.55-3.48,0-2.18,0-2.58-.53-3.45a3.28,3.28,0,0,0-3-1.76h-3.43Zm-7.27-5.21c0-2.14.11-2.43.5-3a1.89,1.89,0,0,1,3,0c.39.53.5.82.5,3s-.11,2.43-.5,3a1.89,1.89,0,0,1-3,0c-.39-.53-.5-.82-.5-3m-1.49,0c0,2.5.11,2.81.43,3.42a3.46,3.46,0,0,0,6.15,0c.31-.61.42-.92.42-3.42s-.11-2.81-.42-3.42a3.46,3.46,0,0,0-6.15,0c-.32.61-.43.92-.43,3.42M638,359.71h1.49v-6.5h0l2,5h1.24l2.05-5h0v6.5h1.49V349.29H645l-2.75,6.79-2.81-6.79H638Zm-7.75,0h6.26v-1.49h-4.78v-3.06h4.08v-1.41h-4.08v-3h4.78v-1.49h-6.26Zm-8.59,0h1.49v-4.45H625l2,4.45h1.77l-2.27-4.63a2.94,2.94,0,0,0,1.9-2.88,3,3,0,0,0-1-2.22,2.79,2.79,0,0,0-2-.69h-3.83Zm1.49-9h2.33a1.59,1.59,0,0,1,1.09.32,1.44,1.44,0,0,1,.49,1.18,1.57,1.57,0,0,1-1.67,1.66h-2.24Zm-12.51,9h6.27v-1.49H612.1v-8.93h-1.48Zm-2.89,0h1.57l-3.57-10.42h-1.24l-3.57,10.42h1.57l.76-2.33H607ZM603.68,356l1.42-4.55h0l1.42,4.55Zm-11.43,3.73h1.48v-7.4h0l4.44,7.4h1.4V349.29h-1.48v7.4h0l-4.44-7.4h-1.4ZM585,354.5c0-2.14.12-2.43.5-3a1.89,1.89,0,0,1,3,0c.39.53.5.82.5,3s-.11,2.43-.5,3a1.89,1.89,0,0,1-3,0c-.38-.53-.5-.82-.5-3m-1.48,0c0,2.5.11,2.81.42,3.42a3.46,3.46,0,0,0,6.15,0c.32-.61.43-.92.43-3.42s-.11-2.81-.43-3.42a3.46,3.46,0,0,0-6.15,0c-.31.61-.42.92-.42,3.42m-3.25,5.21h1.49V349.29h-1.49Zm-8.77-1.35a5.3,5.3,0,0,0,3.75,1.43c2.11,0,3.45-1.11,3.45-3a2.91,2.91,0,0,0-2.69-3l-1.1-.16c-1-.16-1.4-.75-1.4-1.33a1.47,1.47,0,0,1,1.65-1.5,4.44,4.44,0,0,1,2.42.81l.83-1.3a5.53,5.53,0,0,0-3.19-1.08,2.91,2.91,0,0,0-3.19,3,2.82,2.82,0,0,0,2.6,2.92l1.3.19a1.34,1.34,0,0,1,1.28,1.41c0,.86-.73,1.45-1.95,1.45a4.37,4.37,0,0,1-2.78-1Zm-8.2,0a5.27,5.27,0,0,0,3.74,1.43c2.11,0,3.45-1.11,3.45-3a2.9,2.9,0,0,0-2.69-3l-1.1-.16c-1-.16-1.39-.75-1.39-1.33a1.47,1.47,0,0,1,1.64-1.5,4.39,4.39,0,0,1,2.42.81l.83-1.3a5.53,5.53,0,0,0-3.18-1.08,2.91,2.91,0,0,0-3.2,3,2.82,2.82,0,0,0,2.6,2.92l1.3.19a1.34,1.34,0,0,1,1.28,1.41c0,.86-.73,1.45-1.94,1.45a4.33,4.33,0,0,1-2.78-1ZM556,359.71h6.26v-1.49h-4.78v-3.06h4.08v-1.41h-4.08v-3h4.78v-1.49H556Zm-7.62,0h1.48v-4.45h4.08v-1.4h-4.08v-3.08h4.78v-1.49h-6.26Zm-7.28-5.21c0-2.14.11-2.43.5-3a1.89,1.89,0,0,1,3,0c.39.53.5.82.5,3s-.11,2.43-.5,3a1.89,1.89,0,0,1-3,0c-.39-.53-.5-.82-.5-3m-1.48,0c0,2.5.11,2.81.42,3.42a3.46,3.46,0,0,0,6.15,0c.31-.61.42-.92.42-3.42s-.11-2.81-.42-3.42a3.46,3.46,0,0,0-6.15,0c-.31.61-.42.92-.42,3.42m-8.22,5.21h1.49v-4.45h1.9l2,4.45h1.76l-2.27-4.63a2.94,2.94,0,0,0,1.9-2.88,3,3,0,0,0-1-2.22,2.79,2.79,0,0,0-2-.69h-3.83Zm1.49-9h2.33a1.59,1.59,0,0,1,1.09.32,1.44,1.44,0,0,1,.49,1.18,1.57,1.57,0,0,1-1.67,1.66h-2.24Zm-9.78,9h1.49v-4.07h2.26a3,3,0,0,0,3.07-3.13,3.2,3.2,0,0,0-1.06-2.49,3.14,3.14,0,0,0-2.21-.73h-3.55Zm1.49-8.93h2.15a1.63,1.63,0,0,1,1.06.3,1.56,1.56,0,0,1,.63,1.39,1.6,1.6,0,0,1-1.64,1.68h-2.2Z" transform="translate(-96 -211.56)" fill="#130c11"/></g></svg>